<?xml version="1.0" encoding="utf-8"?>
<!-- Generator: Adobe Illustrator 25.0.0, SVG Export Plug-In . SVG Version: 6.00 Build 0)  -->
<svg version="1.1" id="레이어_1" xmlns="http://www.w3.org/2000/svg" xmlns:xlink="http://www.w3.org/1999/xlink" x="0px"
	 y="0px" viewBox="0 0 256 256" style="enable-background:new 0 0 256 256;" xml:space="preserve">
<style type="text/css">
	.st0{fill:url(#SVGID_1_);}
	.st1{fill:#FFD815;}
	.st2{fill:#FFCB28;}
	.st3{opacity:0.1;fill:#FFFFFF;enable-background:new    ;}
	.st4{fill:#FFFFFF;}
</style>
<g>
	<g>
		
			<radialGradient id="SVGID_1_" cx="133.0049" cy="-176068.625" r="88.5145" gradientTransform="matrix(1 0 0 -5.145100e-02 0 -8846.7295)" gradientUnits="userSpaceOnUse">
			<stop  offset="0" style="stop-color:#E6E6E6"/>
			<stop  offset="1" style="stop-color:#FFFFFF"/>
		</radialGradient>
		<path class="st0" d="M221.5,212.1c0,2.5-39.6,4.5-88.5,4.5c-48.8,0-88.5-2-88.5-4.5s39.6-4.5,88.5-4.5S221.5,209.7,221.5,212.1z"
			/>
		<path class="st1" d="M33.7,83.9H15c-5.9,0-10.6,4.8-10.6,10.6c0,5.9,4.8,10.6,10.6,10.6h18.6c5.9,0,10.6-4.8,10.6-10.6
			S39.5,83.9,33.7,83.9z"/>
		<path class="st1" d="M42.9,41.5h-0.3c-5.9,0-10.6,4.8-10.6,10.6c0,5.9,4.8,10.6,10.6,10.6h0.3c5.9,0,10.6-4.8,10.6-10.6
			C53.5,46.2,48.8,41.5,42.9,41.5z"/>
		<path class="st1" d="M51.8,169h-11c-5.9,0-10.6,4.8-10.6,10.6c0,5.9,4.8,10.6,10.6,10.6h11c5.9,0,10.6-4.8,10.6-10.6
			C62.4,173.7,57.7,169,51.8,169z"/>
		<polygon class="st2" points="219,61.9 218.2,61.1 200.5,44.3 200.5,61.9 		"/>
		<path class="st1" d="M221.7,67v123.2H90.1l0,0h-4.6c-5.8,0-10.6-4.8-10.6-10.6c0-5.9,4.7-10.6,10.6-10.6l0,0h0.5
			c5.9,0,10.6-4.8,10.6-10.6c0-5.9-4.8-10.6-10.6-10.6h-31c-5.9,0-10.6-4.8-10.6-10.6c0-5.9,4.8-10.6,10.6-10.6h22.7
			c5.9,0,10.6-4.8,10.6-10.6c0-5.9-4.8-10.6-10.6-10.6H67.5c-5.9,0-10.6-4.8-10.6-10.6S61.7,84,67.5,84h26.3
			c5.9,0,10.6-4.8,10.6-10.6c0-5.9-4.8-10.6-10.6-10.6H76.7c-5.9,0-10.6-4.8-10.6-10.6c0-5.9,4.8-10.6,10.6-10.6h69.7h48.9v25.5
			L221.7,67L221.7,67z"/>
		<path class="st3" d="M195.2,41.5V65c-8.5,58.6-49.7,107-105.1,125.2l0,0h-4.6c-5.8,0-10.6-4.8-10.6-10.6c0-5.9,4.7-10.6,10.6-10.6
			l0,0h0.5c5.9,0,10.6-4.8,10.6-10.6c0-5.9-4.8-10.6-10.6-10.6h-31c-5.9,0-10.6-4.8-10.6-10.6c0-5.9,4.8-10.6,10.6-10.6h22.7
			c5.9,0,10.6-4.8,10.6-10.6c0-5.9-4.8-10.6-10.6-10.6H67.5c-5.9,0-10.6-4.8-10.6-10.6S61.7,84,67.5,84h26.3
			c5.9,0,10.6-4.8,10.6-10.6c0-5.9-4.8-10.6-10.6-10.6H76.7c-5.9,0-10.6-4.8-10.6-10.6c0-5.9,4.8-10.6,10.6-10.6h69.7L195.2,41.5z"
			/>
		<path class="st3" d="M90.1,190.2h-4.6c-5.8,0-10.6-4.8-10.6-10.6c0-5.9,4.7-10.6,10.6-10.6l0,0h0.5c5.9,0,10.6-4.8,10.6-10.6
			c0-5.9-4.8-10.6-10.6-10.6h-31c-5.9,0-10.6-4.8-10.6-10.6c0-5.9,4.8-10.6,10.6-10.6h22.7c5.9,0,10.6-4.8,10.6-10.6
			c0-5.9-4.8-10.6-10.6-10.6H67.5c-5.9,0-10.6-4.8-10.6-10.6S61.7,84,67.5,84h26.3c5.9,0,10.6-4.8,10.6-10.6
			c0-5.9-4.8-10.6-10.6-10.6H76.7c-5.9,0-10.6-4.8-10.6-10.6c0-5.9,4.8-10.6,10.6-10.6h69.7C147.4,98.6,126,151,90.1,190.2z"/>
	</g>
	<rect x="119.8" y="104.3" class="st4" width="76.6" height="9"/>
	<rect x="119.8" y="83.9" class="st4" width="76.6" height="9"/>
	<rect x="119.8" y="124.5" class="st4" width="76.6" height="9"/>
	<rect x="119.8" y="144.9" class="st4" width="76.6" height="9"/>
</g>
</svg>
