<?xml version="1.0" encoding="utf-8"?>
<!-- Generator: Adobe Illustrator 25.0.0, SVG Export Plug-In . SVG Version: 6.00 Build 0)  -->
<svg version="1.1" xmlns="http://www.w3.org/2000/svg" xmlns:xlink="http://www.w3.org/1999/xlink" x="0px" y="0px"
	 viewBox="0 0 949 256" style="enable-background:new 0 0 949 256;" xml:space="preserve">
<style type="text/css">
	.st0{display:none;}
	.st1{display:inline;fill:#2366D1;}
	.st2{display:inline;fill:#609DFF;}
	.st3{display:inline;fill:#A4C7FF;}
	.st4{display:inline;}
	.st5{fill:#333333;}
	.st6{fill:#41444E;}
	.st7{fill:url(#SVGID_1_);}
	.st8{fill:#F4D029;}
	.st9{fill:#F4C331;}
	.st10{opacity:0.1;fill:#FFFFFF;enable-background:new    ;}
	.st11{fill:#FFFFFF;}
</style>
<g id="레이어_1" class="st0">
	<path class="st1" d="M110.9,128l110.9,64l-110.9,64L0,192L110.9,128z"/>
	<path class="st2" d="M110.9,64l110.9,64l-110.9,64L0,128L110.9,64z"/>
	<path class="st3" d="M110.9,0l110.9,64l-110.9,64L0,64L110.9,0z"/>
	<g transform="translate(300, 55.695), scale(0.7)" class="st4">
		<path vector-effect="non-scaling-stroke" class="st5" d="M613.9,10.2v127c0,0.9,0,1.9,0.1,2.8c0.4,8.5,2.6,16.3,6.6,23.3
			c0.4,0.6,0.7,1.2,1.1,1.8c0.9,1.4,1.8,2.8,2.9,4.1c4.5,5.8,10.3,10.6,17.2,14.3c0.6,0.3,1.1,0.6,1.7,0.9c1.6,0.8,3.2,1.5,4.9,2.2
			c7.4,2.9,15.6,4.5,24.5,4.7c0.8,0,1.7,0,2.5,0c0.9,0,1.9,0,2.8,0c9.8-0.3,18.6-2.2,26.6-5.7c0.8-0.4,1.7-0.8,2.5-1.2
			c9.3-4.6,16.6-11,21.9-19.2c0.8-1.2,1.5-2.5,2.2-3.8c3.5-6.7,5.4-14.2,5.7-22.3c0-0.6,0-1.2,0-1.8v-127c0-0.3,0-0.6,0-0.9
			c0.2-2,0.9-3.5,2.1-4.7c0.8-0.7,1.7-1.3,2.7-1.6c0.8-0.3,1.8-0.4,2.8-0.4c1.5,0,2.8,0.3,3.9,0.8c0.6,0.3,1.2,0.7,1.7,1.2
			c1.2,1.2,1.9,2.9,2,4.9c0,0.2,0,0.5,0,0.7v127c0,13.1-3.1,24.7-9.2,35c-0.2,0.3-0.4,0.7-0.6,1c-6.6,10.5-15.7,18.7-27.4,24.6
			c-10.8,5.4-23,8.4-36.5,8.8c-1.1,0-2.2,0-3.3,0c-14.8,0-28.1-2.9-39.8-8.8c-0.9-0.5-1.8-0.9-2.7-1.4c-9.2-5.1-16.7-11.8-22.5-20
			c-0.7-1-1.4-2.1-2.1-3.2c-6.5-10.5-9.7-22.5-9.7-36v-127c0-0.3,0-0.6,0-0.9c0.2-2,0.9-3.5,2.1-4.7c0.8-0.7,1.7-1.3,2.7-1.6
			c0.8-0.3,1.8-0.4,2.8-0.4c1.5,0,2.8,0.3,3.9,0.8c0.6,0.3,1.2,0.7,1.7,1.2c1.2,1.2,1.9,2.9,2,4.9C613.9,9.7,613.9,10,613.9,10.2z
			 M895.5,9c-0.2-0.1-0.4-0.2-0.6-0.3C884.6,2.9,873.4,0,861.2,0c-0.8,0-1.6,0-2.4,0c-11,0.3-20.7,2.3-29.2,6.2
			c-0.5,0.2-1,0.5-1.5,0.7c-8.4,4.1-15,9.8-19.8,17c-5,7.6-7.6,16.3-7.6,26.2c0,13,4.8,24.2,14.4,33.5c0.6,0.6,1.2,1.2,1.8,1.7
			c0.9,0.8,1.7,1.5,2.7,2.2c10,7.9,23.2,13.3,39.4,15.9c0.9,0.1,1.8,0.3,2.6,0.4c14.9,2,26.5,6.4,34.7,13c0.7,0.6,1.4,1.1,2,1.7
			c0.3,0.3,0.6,0.5,0.8,0.8c7.7,7.5,11.6,16.8,11.6,28c0,13.5-4.2,23.9-12.7,31.2c-1.4,1.2-2.9,2.3-4.5,3.3
			c-7.5,4.8-16.9,7.4-28.2,7.6c-0.7,0-1.4,0-2,0c-0.7,0-1.5,0-2.2,0c-10.5-0.2-19.7-2.1-27.6-5.6c-1-0.5-2.1-0.9-3.1-1.5
			c-0.5-0.3-1-0.5-1.5-0.8c-7.2-4-12.9-9.2-17.1-15.7c-0.7-1.1-1.3-2.2-2-3.3c-0.1-0.1-0.1-0.2-0.2-0.4c-1.4-2.7-3.5-4.2-6.2-4.5
			c-0.3,0-0.7-0.1-1-0.1c-0.1,0-0.2,0-0.3,0c-2.2,0.1-4,0.7-5.4,2c-0.2,0.2-0.5,0.5-0.7,0.7c-0.8,1-1.3,2.1-1.4,3.4
			c0,0.3-0.1,0.7-0.1,1c0,0.3,0,0.7,0.1,1c0.1,0.4,0.2,0.8,0.3,1.1c0.1,0.3,0.2,0.6,0.4,0.9c0.2,0.5,0.5,0.9,0.7,1.4
			c5.3,9.9,13,17.9,23,24.1c0.9,0.5,1.8,1.1,2.7,1.6c11.8,6.6,25.7,9.9,41.7,9.9c10.7,0,20.3-1.7,28.8-5.1c1.4-0.6,2.7-1.2,4.1-1.8
			c9.5-4.6,16.8-11.3,22-20c0.8-1.3,1.5-2.6,2.1-4c3.8-7.8,5.7-16.7,5.7-26.8c0-0.7,0-1.4,0-2.1c-0.4-13.5-4.6-24.7-12.6-33.6
			c-0.7-0.8-1.5-1.6-2.2-2.3c-9.9-9.6-25.6-16.3-47.1-19.8c-0.6-0.1-1.2-0.2-1.8-0.3c-15.5-2.8-27-7.3-34.5-13.5
			c-0.3-0.3-0.6-0.5-0.9-0.8c-7.2-6.3-10.8-14.1-10.8-23.3c0,0,0-0.1,0-0.1c0-11.4,4-20.2,11.9-26.6c0.3-0.2,0.6-0.5,0.9-0.7
			c7.5-5.7,17.6-8.6,30.3-8.9c0.7,0,1.3,0,2,0c0.3,0,0.6,0,0.9,0c17.8,0.2,31.6,7,41.5,20.2c0.5,0.7,1,1.3,1.4,2
			c1.5,2.3,3.5,3.5,6.1,3.8c0.3,0,0.7,0.1,1.1,0.1c0.2,0,0.4,0,0.6,0c1.1,0,1.9-0.2,2.5-0.5c0,0,0.1,0,0.1-0.1
			c0.7-0.3,1.3-0.8,1.8-1.2c0.5-0.4,0.9-0.9,1.3-1.4c0.5-0.8,0.9-1.6,1-2.5c0.1-0.4,0.1-0.8,0.1-1.2c0-1.5-0.3-2.9-1-4.1
			C913.6,22.1,905.9,14.9,895.5,9z M160.3,0.1C159,0,157.7,0,156.4,0c-16.6,0-31.9,3.8-46,11.5c-1.5,0.8-2.9,1.6-4.3,2.5
			c-0.5,0.3-1,0.6-1.6,1c-13.2,8.4-24,19.2-32.4,32.6c-0.8,1.3-1.6,2.6-2.4,4c-9,15.7-13.4,32.7-13.4,50.9
			c0,16.6,3.7,32.2,11.2,46.8c0.7,1.4,1.5,2.9,2.3,4.3c9,15.8,21.2,28.3,36.6,37.6c0.5,0.3,1.1,0.6,1.6,0.9c14.9,8.7,31,13,48.3,13
			c27.3,0,48.3-7.3,63-22c1-1.2,1.6-2.6,1.8-4.4c0-0.3,0-0.6,0-1c0-1.8-0.6-3.4-1.7-4.8c-0.2-0.3-0.5-0.6-0.8-0.8
			c0,0-0.1-0.1-0.1-0.1c-1.6-1.5-3.4-2.2-5.4-2.2c-0.6,0-1.1,0.1-1.7,0.2c-0.4,0.1-0.8,0.3-1.3,0.5c-0.3,0.2-0.6,0.3-0.9,0.5
			c-15.2,12.5-32.9,18.7-53,18.7c-13.8,0-26.7-3.2-38.7-9.7c-1.2-0.7-2.5-1.4-3.7-2.1c-13.1-7.9-23.4-18.5-31-31.9
			c-6.9-12.2-10.7-25.3-11.3-39.4c-0.1-1.4-0.1-2.8-0.1-4.2c0-15.2,3.8-29.5,11.5-42.9c0-0.1,0.1-0.2,0.2-0.3
			c7.7-13.3,18-23.9,31-31.9c0.9-0.6,1.9-1.1,2.9-1.7c11-6.2,22.7-9.6,35.1-10.2c1.4-0.1,2.8-0.1,4.2-0.1c0.1,0,0.3,0,0.4,0
			c15.6,0.1,28.9,3.2,40,9.5c4,2.2,7.7,4.9,11,7.9c0.2,0.1,0.3,0.3,0.5,0.4c2.2,1.8,4.2,2.7,5.9,2.7c0.2,0,0.4,0,0.6,0
			c1.6-0.1,3-0.6,4.1-1.5c0.3-0.3,0.6-0.6,0.9-0.9c0.1-0.1,0.2-0.2,0.2-0.3c1.2-1.6,1.8-3.3,1.8-5.2c0-0.2,0-0.4,0-0.6
			c-0.1-1.9-0.9-3.4-2.3-4.5c0,0-0.1-0.1-0.1-0.1C202.3,8.4,182.6,0.9,160.3,0.1z M551.2,198.4l-47.1-75.3h-4.6h-41.2v71.7
			c0,2.2-0.7,4.1-2,5.5c-1.3,1.4-3.1,2.1-5.3,2.2c-0.1,0-0.2,0-0.3,0c-2.1,0-3.8-0.6-5.2-1.9c-0.1-0.1-0.2-0.2-0.3-0.3
			c-0.3-0.3-0.6-0.7-0.9-1c-0.9-1.2-1.3-2.7-1.3-4.4c0,0,0,0,0,0V10.2c0-0.3,0-0.6,0-0.9c0.2-2,0.9-3.5,2.1-4.7
			c0.8-0.7,1.7-1.3,2.7-1.6c0.8-0.3,1.8-0.4,2.8-0.4h48.9c12.3,0,23.3,2.6,33,7.7c9,4.7,16.1,11.2,21.5,19.4
			c0.4,0.7,0.9,1.4,1.3,2.1c2.1,3.6,3.9,7.4,5.2,11.4c2,6.2,3,12.9,3,20.1c0,12.6-3.2,23.7-9.5,33.2c-0.7,1-1.4,2-2.1,3
			c-0.8,1.1-1.7,2.1-2.6,3.2c-7.1,8-16,13.7-27,17.2c-0.6,0.2-1.2,0.4-1.8,0.5l44,70.4c1.4,2.4,2,4.4,2,5.9c0,0.3,0,0.6,0,0.8
			c-0.2,1.2-0.6,2.2-1.4,3c-0.2,0.2-0.4,0.4-0.7,0.6c-0.3,0.2-0.5,0.3-0.8,0.5c-1.4,0.7-3.2,1.1-5.5,1.1c-1.6,0-2.8-0.3-3.8-0.8
			c-0.1-0.1-0.2-0.1-0.3-0.2c-0.9-0.6-1.7-1.4-2.5-2.5C551.4,198.8,551.3,198.6,551.2,198.4z M399.1,197.6l-18.9-45.3H276L257,197.6
			c-1.1,3.1-3.3,4.7-6.6,4.9c-0.2,0-0.4,0-0.5,0c-0.3,0-0.6,0-0.9,0c-1.9-0.2-3.4-0.9-4.5-2.1c-0.1-0.1-0.1-0.1-0.2-0.2
			c-0.3-0.3-0.5-0.6-0.7-1c-0.9-1.3-1.3-2.8-1.3-4.4c0-0.4,0-0.9,0.1-1.3c0.1-0.7,0.3-1.4,0.7-2L320.5,7.9c0.1-0.3,0.2-0.5,0.3-0.8
			c1.3-2.8,3.4-4.3,6.3-4.5c0.3,0,0.5,0,0.8,0c0.3,0,0.7,0,1,0.1c2.9,0.3,5,2.1,6.4,5.3l77.8,183.6c0.5,1,0.8,2.1,0.8,3.3
			c0,0.4,0,0.9-0.1,1.3c-0.3,1.5-1,2.9-2.2,4.1c-0.2,0.2-0.5,0.5-0.8,0.7c-1.2,0.9-2.5,1.5-4,1.6c-0.2,0-0.4,0-0.6,0
			c-0.3,0-0.6,0-0.9,0C402.4,202.2,400.3,200.6,399.1,197.6z M15.4,10.2v184.6c0,2.1-0.6,3.8-1.9,5.2c-0.1,0.1-0.2,0.2-0.3,0.3
			c-0.3,0.3-0.7,0.6-1,0.9c-1.2,0.9-2.7,1.3-4.4,1.3c0,0,0,0,0,0c-2.1,0-3.8-0.6-5.2-1.9c-0.1-0.1-0.2-0.2-0.3-0.3
			c-0.3-0.3-0.6-0.7-0.9-1C0.4,198,0,196.6,0,194.9c0,0,0,0,0,0V10.2C0,8.2,0.6,6.4,1.9,5C2,4.9,2.1,4.8,2.2,4.7
			c0.3-0.3,0.7-0.6,1-0.9C4.5,3,5.9,2.6,7.6,2.6c0,0,0,0,0,0c2.1,0,3.8,0.6,5.2,1.9c0.1,0.1,0.2,0.2,0.3,0.3c0.3,0.3,0.6,0.7,0.9,1
			C14.9,7,15.4,8.5,15.4,10.2C15.4,10.2,15.4,10.2,15.4,10.2z M281.9,138.5h92.4L327.9,27.9L281.9,138.5z M458.2,107.8h41.2
			c7.3,0,14-1.1,20.1-3.4c1.7-0.6,3.4-1.4,5-2.2c0.9-0.4,1.7-0.9,2.5-1.4c5.1-3,9.4-6.9,12.8-11.6c0.7-0.9,1.3-1.9,1.9-2.9
			c3.7-6.1,5.8-12.9,6.2-20.4c0-0.9,0.1-1.8,0.1-2.7c0-8.7-2.1-16.5-6.3-23.4s-9.9-12.3-17.3-16.1c-7.3-3.8-15.7-5.8-25.1-5.8h-41.2
			V107.8z"/>
	</g>
</g>
<g id="레이어_2">
	<g>
		<path class="st6" d="M412.4,21.4c-5.6,0.1-13.8,0.2-23.1,0.2c0.2,20.7,0.2,71.5-0.1,76.6c-6.6,0.7-14,0.7-19.9,0
			c-0.4-3.8-0.4-55.4-0.1-76.6c-8.7,0-17.1-0.1-23.2-0.2c-0.4-6.2-0.4-13.1,0-18.5c16.7-0.4,51.1-0.4,66.5,0
			C412.6,9.7,412.6,13.8,412.4,21.4z"/>
		<path class="st6" d="M409.2,63.1c0-25.4,11.1-36.7,32.5-36.7c21.3,0,32.5,11.3,32.5,36.7c0,25.5-11.2,36.8-32.5,36.8
			C420.4,99.9,409.2,88.5,409.2,63.1z M455.8,63.1c0-14.8-4.9-19.7-13.8-19.7c-9.1,0-14,4.9-14,19.7s5,19.7,14,19.7
			C450.9,82.6,455.8,77.6,455.8,63.1z"/>
		<path class="st6" d="M525.9,31.7c-0.1-12.9-0.1-23.1,0-30c4.4-0.7,13.2-0.7,18.6,0c0.4,23.8,0.2,76.9,0,96.6
			c-3.9,0.6-12,0.6-17.9,0c-0.1-1.1-0.4-2.5-0.4-3.9c-4.3,3.8-9.6,5.7-16,5.7c-16.5,0-28.7-10.8-28.7-36.8s12-36.7,28.7-36.7
			C516.5,26.4,521.6,28.3,525.9,31.7z M525.9,64.5v-3.4c0-13.5-5.8-17.5-12.8-17.5c-7.9,0-12.8,3.9-12.8,19.4s4.8,19.5,12.8,19.5
			C520.2,82.4,525.9,78.5,525.9,64.5z"/>
		<path class="st6" d="M611.4,98c-5.4,0.8-12,0.8-18,0c-0.1-1.3-0.2-3-0.2-4.8c-4.4,4.6-9.4,6.6-16.2,6.6
			c-12.3,0-22.3-6.4-22.3-20.7c0-14.9,8.2-22.8,25.4-23.3c4.4-0.1,9.1-0.2,12.9-0.1v-0.1c-0.1-9.6-4.1-12-12-12
			c-6,0-10.6,1.3-16.6,4.3c-2.6-3.9-4.9-10.2-5.5-16.1c9.6-4,15.1-5.4,26.8-5.4c13.2-0.1,26,9.4,26.1,25.8
			C611.6,65.2,611.4,87.9,611.4,98z M592.8,73.5v-3.2c-3,0-6.4,0-11.3,0.1c-6.6,0.2-8.6,2.9-8.6,7.1c0,4.3,2.6,6.8,8.7,6.8
			C587.4,84.2,591.7,80.8,592.8,73.5z"/>
		<path class="st6" d="M679.5,31.3c-3.6,13-16.5,50.7-22.2,65c-6.2,15.8-14.7,23.1-28.2,25.6c-2.6-4.8-4.6-12-5.7-17.2
			c6.3-1.1,11.7-3.5,15-8.1c-8.2-20.6-18.3-51.5-22.1-65.5c4.3-2,13.4-4.6,17.4-5.2c4,13.1,7.9,26.8,14.1,46.1
			c5.4-16.7,11.3-37.2,14-46C667.9,27.6,674.4,29.3,679.5,31.3z"/>
		<path class="st6" d="M351.3,125.9c4.6-0.6,14.6-0.6,19.6,0c0.2,22.2,0.2,74.3,0,95.1c-6.7,0.7-13.7,0.7-19.6,0
			C350.9,201.2,350.9,148.7,351.3,125.9z"/>
		<path class="st6" d="M409.2,125.9c5.5-0.7,16-0.7,19.9,0c0.4,16.3,0.2,64.8,0,76.8c10.7-0.2,28.8-0.2,37.2,0
			c0.4,5.5,0.4,13.7,0,18.3c-8.5,0.4-48.2,0.4-57.2,0C409.1,200.9,409.1,146,409.2,125.9z"/>
		<path class="st6" d="M472.5,186.1c0-24.3,10.4-36.9,32.1-36.9c23.7,0,32.8,17.9,30,43.8c-4.8,0.4-34.5,0.2-42.8,0
			c0,8.1,5.6,12.5,13.7,12.5c7.1,0,11.8-1.9,15.6-6.2c4.8,3.7,8.7,7.9,11.7,12c-5.7,7.5-14.7,11.3-28,11.3
			C485.2,222.7,472.5,211.5,472.5,186.1z M504.5,166.1c-8.6,0-12.4,4.4-12.8,11.4h24.5C516.1,170.7,511.7,166.1,504.5,166.1z"/>
		<path class="st6" d="M598.8,220.8c-5.4,0.8-12,0.8-18,0c-0.1-1.3-0.2-3-0.2-4.8c-4.4,4.6-9.4,6.6-16.2,6.6
			c-12.3,0-22.3-6.4-22.3-20.7c0-14.9,8.2-22.8,25.4-23.3c4.4-0.1,9.1-0.2,12.9-0.1v-0.2c-0.1-9.6-4-12-12-12
			c-6,0-10.6,1.3-16.6,4.3c-2.6-3.9-4.9-10.2-5.5-16.1c9.6-4,15.1-5.4,26.8-5.4c13.2-0.1,26,9.4,26.1,25.8
			C598.8,187.9,598.8,210.7,598.8,220.8z M580.4,196.2V193c-2.9,0-6.4,0-11.3,0.1c-6.6,0.2-8.6,2.9-8.6,7.1c0,4.3,2.6,6.8,8.7,6.8
			C574.9,207,578.9,203.7,580.4,196.2z"/>
		<path class="st6" d="M652.7,150.2c-0.1,4.6-2,14.3-3.7,18.8c-9.6-3-20.3,1.2-21.5,10.6c0,17,0.1,25.6-0.1,41.2
			c-4.6,0.7-13.4,0.7-18.7,0c-0.4-23.8-0.2-50,0-70.2c6.8-0.8,12.3-0.8,18.4,0l0.4,6.3c2.6-3.2,5.8-5.5,9.3-6.7
			C641.8,148.5,648,148.5,652.7,150.2z"/>
		<path class="st6" d="M719.2,220.7c-3.8,0.4-14.2,0.4-18.7,0c0.1-10.7,0.1-31,0-41c-0.1-9.8-4.6-13.2-10.2-13.2
			c-6.2,0-11.2,5.6-11.5,12.7c0.1,14.8,0,29.4-0.2,41.5c-5.5,0.7-14,0.7-18.6,0c-0.2-20.4-0.2-46.6,0-70c5.4-0.8,14.1-0.8,18.6,0
			c0,2,0,3.8,0.1,5.8c4-5.4,9.5-7.6,17.8-7.6c11.8,0,22.8,9.6,23,26.3C719.6,188.6,719.2,210.7,719.2,220.7z"/>
		<path class="st6" d="M728.4,186.1c0-24.3,10.4-36.9,32.3-36.9c23.7,0,32.8,17.9,30,43.8c-4.8,0.4-34.5,0.2-42.8,0
			c0,8.1,5.6,12.5,13.7,12.5c7.1,0,11.8-1.9,15.6-6.2c4.8,3.7,8.7,7.9,11.7,12c-5.7,7.5-14.7,11.3-28,11.3
			C741.1,222.7,728.4,211.5,728.4,186.1z M760.6,166.1c-8.6,0-12.4,4.4-12.8,11.4h24.4C772.2,170.7,767.8,166.1,760.6,166.1z"/>
		<path class="st6" d="M842.6,154.5c-0.1-12.9-0.1-23.1,0-30c4.4-0.7,13.2-0.7,18.6,0c0.4,23.8,0.2,76.9,0,96.6
			c-3.9,0.6-12,0.6-17.9,0c-0.1-1.1-0.4-2.5-0.4-3.9c-4.3,3.8-9.6,5.7-16,5.7c-16.5,0-28.7-10.7-28.7-36.8c0-26,12-36.7,28.7-36.7
			C833,149.1,838.1,151.1,842.6,154.5z M842.3,187.2v-3.5c0-13.5-5.8-17.5-12.8-17.5c-7.9,0-12.8,3.9-12.8,19.4s4.8,19.5,12.8,19.5
			C836.7,205.4,842.3,201.3,842.3,187.2z"/>
		<path class="st6" d="M871.7,202c6.3-0.4,13.6-0.4,19.6,0c0.2,5.8,0.2,13.1,0,18.8c-6.3,0.6-13.6,0.4-19.6,0.1
			C871.5,215,871.5,207.7,871.7,202z"/>
		<path class="st6" d="M900,202c6.3-0.4,13.6-0.4,19.6,0c0.2,5.8,0.2,13.1,0,18.8c-6.3,0.6-13.6,0.4-19.6,0.1
			C900,215,899.9,207.7,900,202z"/>
		<path class="st6" d="M928.6,202c6.3-0.4,13.6-0.4,19.6,0c0.2,5.8,0.2,13.1,0,18.8c-6.3,0.6-13.6,0.4-19.6,0.1
			C928.1,215,928.1,207.7,928.6,202z"/>
		<g>
			<g>
				
					<radialGradient id="SVGID_1_" cx="178.3956" cy="-192996.5469" r="124.7794" gradientTransform="matrix(0.9957 0 0 -5.016090e-02 4.118 -9433.2822)" gradientUnits="userSpaceOnUse">
					<stop  offset="0" style="stop-color:#E5E5E4"/>
					<stop  offset="1" style="stop-color:#FFFFFF"/>
				</radialGradient>
				<path class="st7" d="M306,247.6c0,3.4-55.6,6.2-124.3,6.2c-68.5,0-124.3-2.8-124.3-6.2s55.6-6.2,124.3-6.2
					C250.3,241.3,306,244.2,306,247.6z"/>
				<path class="st8" d="M42.4,71.5H16.4c-8.3,0-14.9,6.6-14.9,14.6c0,8.1,6.8,14.6,14.9,14.6h26.1c8.3,0,14.9-6.6,14.9-14.6
					S50.7,71.5,42.4,71.5z"/>
				<path class="st8" d="M55.5,13.1h-0.3c-8.3,0-14.9,6.6-14.9,14.6c0,8.1,6.8,14.6,14.9,14.6h0.3c8.3,0,14.9-6.6,14.9-14.6
					C70.3,19.4,63.8,13.1,55.5,13.1z"/>
				<path class="st8" d="M67.8,188.2H52.4c-8.3,0-14.9,6.6-14.9,14.6c0,8.1,6.8,14.6,14.9,14.6h15.3c8.3,0,14.9-6.6,14.9-14.6
					C82.9,194.8,76,188.2,67.8,188.2z"/>
				<polygon class="st9" points="302.6,41 301.2,39.9 276.6,17 276.6,41 				"/>
				<path class="st8" d="M306.3,48.1v169.4H121.6l0,0h-6.5c-8.2,0-14.9-6.6-14.9-14.6c0-8.1,6.6-14.6,14.9-14.6l0,0h0.7
					c8.3,0,14.9-6.6,14.9-14.6c0-8.1-6.8-14.6-14.9-14.6H72.3c-8.3,0-14.9-6.6-14.9-14.6c0-8.1,6.8-14.6,14.9-14.6h31.9
					c8.3,0,14.9-6.6,14.9-14.6c0-8.1-6.8-14.6-14.9-14.6H89.9c-8.3,0-14.9-6.6-14.9-14.6s6.8-14.6,14.9-14.6h36.8
					c8.3,0,14.9-6.6,14.9-14.6c0-8.1-6.8-14.6-14.9-14.6h-24c-8.3,0-14.9-6.6-14.9-14.6c0-8.1,6.8-14.6,14.9-14.6h97.8h68.7v35
					L306.3,48.1L306.3,48.1z"/>
				<path class="st10" d="M269.1,13.1v32.3c-11.8,80.5-69.8,147-147.6,171.9l0,0H115c-8.2,0-14.9-6.6-14.9-14.6
					c0-8.1,6.6-14.6,14.9-14.6l0,0h0.7c8.3,0,14.9-6.6,14.9-14.6c0-8.1-6.8-14.6-14.9-14.6H72.2c-8.3,0-14.9-6.6-14.9-14.6
					c0-8.1,6.8-14.6,14.9-14.6h31.9c8.3,0,14.9-6.6,14.9-14.6c0-8.1-6.8-14.6-14.9-14.6H89.8c-8.3,0-14.9-6.6-14.9-14.6
					s6.8-14.6,14.9-14.6h36.8c8.3,0,14.9-6.6,14.9-14.6c0-8.1-6.8-14.6-14.9-14.6h-24c-8.3,0-14.9-6.6-14.9-14.6
					c0-8.1,6.8-14.6,14.9-14.6h97.9L269.1,13.1z"/>
				<path class="st10" d="M121.6,217.4h-6.5c-8.2,0-14.9-6.6-14.9-14.6c0-8.1,6.6-14.6,14.9-14.6l0,0h0.7c8.3,0,14.9-6.6,14.9-14.6
					c0-8.1-6.8-14.6-14.9-14.6H72.3c-8.3,0-14.9-6.6-14.9-14.6c0-8.1,6.8-14.6,14.9-14.6h31.9c8.3,0,14.9-6.6,14.9-14.6
					c0-8.1-6.8-14.6-14.9-14.6H89.9C81.7,100.6,75,94,75,86s6.8-14.6,14.9-14.6h36.8c8.3,0,14.9-6.6,14.9-14.6
					c0-8.1-6.8-14.6-14.9-14.6h-24c-8.3,0-14.9-6.6-14.9-14.6c0-8.1,6.8-14.6,14.9-14.6h97.8C202.1,91.6,171.9,163.7,121.6,217.4z"
					/>
			</g>
			<rect x="163.3" y="99.4" class="st11" width="107.5" height="12.4"/>
			<rect x="163.3" y="71.5" class="st11" width="107.5" height="12.4"/>
			<rect x="163.3" y="127.2" class="st11" width="107.5" height="12.4"/>
			<rect x="163.3" y="155.1" class="st11" width="107.5" height="12.4"/>
		</g>
	</g>
</g>
</svg>
